<svg xmlns="http://www.w3.org/2000/svg" version="1.1" xmlns:xlink="http://www.w3.org/1999/xlink" xmlns:svgjs="http://svgjs.dev/svgjs" width="2000" height="1247" viewBox="0 0 2000 1247"><g transform="matrix(1,0,0,1,-1.2121212121212466,0.5048582995951847)"><svg viewBox="0 0 396 247" data-background-color="#ffffff" preserveAspectRatio="xMidYMid meet" height="1247" width="2000" xmlns="http://www.w3.org/2000/svg" xmlns:xlink="http://www.w3.org/1999/xlink"><g id="tight-bounds" transform="matrix(1,0,0,1,0.2400000000000091,-0.09999999999999432)"><svg viewBox="0 0 395.52 247.2" height="247.2" width="395.52"><g><svg></svg></g><g><svg viewBox="0 0 395.52 247.2" height="247.2" width="395.52"><g transform="matrix(1,0,0,1,75.54432,76.44879473574322)"><svg viewBox="0 0 244.43135999999998 94.30241052851355" height="94.30241052851355" width="244.43135999999998"><g><svg viewBox="0 0 244.43135999999998 94.30241052851355" height="94.30241052851355" width="244.43135999999998"><g><svg viewBox="0 0 244.43135999999998 94.30241052851355" height="94.30241052851355" width="244.43135999999998"><g><svg viewBox="0 0 244.43135999999998 94.30241052851355" height="94.30241052851355" width="244.43135999999998"><g><svg viewBox="0 0 244.43135999999998 94.30241052851355" height="94.30241052851355" width="244.43135999999998"><g><svg viewBox="0 0 244.43135999999998 50.86221413173653" height="50.86221413173653" width="244.43135999999998"><g transform="matrix(1,0,0,1,0,0)"><svg width="244.43135999999998" viewBox="3.5999999046325684 -34.29999923706055 166.989990234375 34.75" height="50.86221413173653" data-palette-color="#35185a"><path d="M23.6-27.4L28.15-27.4 28.15 0 23.6 0 23.6-4.05Q22.3-1.95 19.98-0.78 17.65 0.4 14.85 0.4L14.85 0.4Q11.65 0.4 9.1-0.93 6.55-2.25 5.08-4.9 3.6-7.55 3.6-11.35L3.6-11.35 3.6-27.4 8.1-27.4 8.1-11.95Q8.1-7.9 10.15-5.73 12.2-3.55 15.75-3.55L15.75-3.55Q19.4-3.55 21.5-5.8 23.6-8.05 23.6-12.35L23.6-12.35 23.6-27.4ZM60.85-14.75Q60.85-13.45 60.7-12L60.7-12 38.8-12Q39.05-7.95 41.57-5.68 44.1-3.4 47.7-3.4L47.7-3.4Q50.65-3.4 52.62-4.78 54.6-6.15 55.4-8.45L55.4-8.45 60.3-8.45Q59.2-4.5 55.9-2.02 52.6 0.45 47.7 0.45L47.7 0.45Q43.8 0.45 40.72-1.3 37.65-3.05 35.9-6.28 34.15-9.5 34.15-13.75L34.15-13.75Q34.15-18 35.85-21.2 37.55-24.4 40.62-26.13 43.7-27.85 47.7-27.85L47.7-27.85Q51.6-27.85 54.6-26.15 57.6-24.45 59.22-21.48 60.85-18.5 60.85-14.75L60.85-14.75ZM56.15-15.7Q56.15-18.3 55-20.18 53.85-22.05 51.87-23.03 49.9-24 47.5-24L47.5-24Q44.05-24 41.62-21.8 39.2-19.6 38.85-15.7L38.85-15.7 56.15-15.7ZM68.5-27.4L77.05-4.2 85.55-27.4 90.4-27.4 79.65 0 74.34 0 63.6-27.4 68.5-27.4ZM119.89-14.75Q119.89-13.45 119.74-12L119.74-12 97.84-12Q98.09-7.95 100.62-5.68 103.14-3.4 106.74-3.4L106.74-3.4Q109.69-3.4 111.67-4.78 113.64-6.15 114.44-8.45L114.44-8.45 119.34-8.45Q118.24-4.5 114.94-2.02 111.64 0.45 106.74 0.45L106.74 0.45Q102.84 0.45 99.77-1.3 96.69-3.05 94.94-6.28 93.19-9.5 93.19-13.75L93.19-13.75Q93.19-18 94.89-21.2 96.59-24.4 99.67-26.13 102.74-27.85 106.74-27.85L106.74-27.85Q110.64-27.85 113.64-26.15 116.64-24.45 118.27-21.48 119.89-18.5 119.89-14.75L119.89-14.75ZM115.19-15.7Q115.19-18.3 114.04-20.18 112.89-22.05 110.92-23.03 108.94-24 106.54-24L106.54-24Q103.09-24 100.67-21.8 98.24-19.6 97.89-15.7L97.89-15.7 115.19-15.7ZM139.24-27.9Q144.24-27.9 147.34-24.88 150.44-21.85 150.44-16.15L150.44-16.15 150.44 0 145.94 0 145.94-15.5Q145.94-19.6 143.89-21.78 141.84-23.95 138.29-23.95L138.29-23.95Q134.69-23.95 132.56-21.7 130.44-19.45 130.44-15.15L130.44-15.15 130.44 0 125.89 0 125.89-27.4 130.44-27.4 130.44-23.5Q131.79-25.6 134.12-26.75 136.44-27.9 139.24-27.9L139.24-27.9ZM170.59-23.65L163.44-23.65 163.44-7.5Q163.44-5.5 164.29-4.67 165.14-3.85 167.24-3.85L167.24-3.85 170.59-3.85 170.59 0 166.49 0Q162.69 0 160.79-1.75 158.89-3.5 158.89-7.5L158.89-7.5 158.89-23.65 155.34-23.65 155.34-27.4 158.89-27.4 158.89-34.3 163.44-34.3 163.44-27.4 170.59-27.4 170.59-23.65Z" opacity="1" transform="matrix(1,0,0,1,0,0)" fill="#000000" class="undefined-text-0" data-fill-palette-color="primary" id="text-0"></path></svg></g></svg></g><g transform="matrix(1,0,0,1,0,62.869562195100364)"><svg viewBox="0 0 244.43135999999998 31.432848333413176" height="31.432848333413176" width="244.43135999999998"><g transform="matrix(1,0,0,1,0,0)"><svg width="244.43135999999998" viewBox="4 -35 366.260009765625 47.099998474121094" height="31.432848333413176" data-palette-color="#35185a"><path d="M25.8 0L4 0 4-35 25.35-35 25.35-30.7 8.75-30.7 8.75-20.45 21.95-20.45 21.95-16.15 8.75-16.15 8.75-4.3 25.8-4.3 25.8 0ZM37.67 0L33.17 0 33.17-24.5 36.67-24.5 37.57-19.8 35.82-20.55Q38.29-23.3 40.65-24.15 43.02-25 45.27-25L45.27-25Q50.64-25 52.95-21.9 55.27-18.8 55.27-13.5L55.27-13.5 55.27 0 50.77 0 50.77-13.5Q50.77-17.4 49.32-19.2 47.87-21 44.37-21L44.37-21Q41.89-21 39.83-19.91 37.77-18.82 37.12-16.45L37.12-16.45 37.67-19.2 37.67 0ZM62.33 11.85L60.83 12.1 60.33 8.65Q61.81 8.5 62.59 8.09 63.38 7.68 63.68 6.65 63.98 5.63 63.98 3.65L63.98 3.65 63.98-24.5 68.48-24.5 68.48 5.35Q68.48 7.7 67.47 9.05 66.46 10.4 65.03 11.03 63.61 11.65 62.33 11.85L62.33 11.85ZM68.48-30L63.98-30 63.98-35 68.48-35 68.48-30ZM88.15 0.5L88.15 0.5Q84.3 0.5 81.58-1.21 78.87-2.93 77.43-5.81 76-8.7 76-12.25L76-12.25Q76-15.8 77.43-18.69 78.87-21.58 81.58-23.29 84.3-25 88.15-25L88.15-25Q91.97-25 94.7-23.29 97.42-21.58 98.86-18.69 100.3-15.8 100.3-12.25L100.3-12.25Q100.3-8.7 98.86-5.81 97.42-2.93 94.7-1.21 91.97 0.5 88.15 0.5ZM88.15-3.5L88.15-3.5Q91.8-3.5 93.75-5.81 95.7-8.13 95.7-12.25L95.7-12.25Q95.7-16.38 93.75-18.69 91.8-21 88.15-21L88.15-21Q84.52-21 82.56-18.69 80.6-16.38 80.6-12.25L80.6-12.25Q80.6-8.13 82.56-5.81 84.52-3.5 88.15-3.5ZM114.11 12.1L109.11 12.1 114.76-1.1 104.56-24.5 109.56-24.5 117.21-6.3 124.11-24.5 129.11-24.5 114.11 12.1ZM156.34 12.1L151.34 12.1 156.99-1.1 146.79-24.5 151.79-24.5 159.44-6.3 166.34-24.5 171.34-24.5 156.34 12.1ZM187.81 0.5L187.81 0.5Q183.96 0.5 181.24-1.21 178.53-2.93 177.09-5.81 175.66-8.7 175.66-12.25L175.66-12.25Q175.66-15.8 177.09-18.69 178.53-21.58 181.24-23.29 183.96-25 187.81-25L187.81-25Q191.63-25 194.36-23.29 197.08-21.58 198.52-18.69 199.96-15.8 199.96-12.25L199.96-12.25Q199.96-8.7 198.52-5.81 197.08-2.93 194.36-1.21 191.63 0.5 187.81 0.5ZM187.81-3.5L187.81-3.5Q191.46-3.5 193.41-5.81 195.36-8.13 195.36-12.25L195.36-12.25Q195.36-16.38 193.41-18.69 191.46-21 187.81-21L187.81-21Q184.18-21 182.22-18.69 180.26-16.38 180.26-12.25L180.26-12.25Q180.26-8.13 182.22-5.81 184.18-3.5 187.81-3.5ZM216.27 0.5L216.27 0.5Q213.4 0.5 211.37-0.66 209.35-1.83 208.28-4.2 207.22-6.58 207.22-10.25L207.22-10.25 207.22-24.5 211.72-24.5 211.72-11.5Q211.72-7.6 213.06-5.55 214.4-3.5 217.42-3.5L217.42-3.5Q219.5-3.5 221.27-4.5 223.05-5.5 223.72-7.7L223.72-7.7 223.07-5.25 223.07-24.5 227.57-24.5 227.57 0 223.57 0 222.67-4.8 223.87-4Q222.65-1.73 220.88-0.61 219.12 0.5 216.27 0.5ZM241.34 0L236.54 0 236.54-24.5 240.24-24.5 240.79-20.45Q242.66-22.78 244.37-23.89 246.09-25 248.04-25L248.04-25Q248.66-25 249.19-24.85L249.19-24.85 248.74-19.9Q248.41-19.98 248.05-20.01 247.69-20.05 247.24-20.05L247.24-20.05Q245.29-20.05 243.65-19.19 242.01-18.32 241.34-17.3L241.34-17.3 241.34 0ZM281.82 0.5L277.77 0.5Q275.44 0.5 274.04-0.35 272.64-1.2 272.01-2.54 271.37-3.88 271.37-5.35L271.37-5.35 271.37-21 267.17-21 267.57-24.5 271.37-24.5 271.37-30.55 275.87-31 275.87-24.5 282.32-24.5 282.32-21 275.87-21 275.87-8.1Q275.87-5.75 276.14-4.7 276.42-3.65 277.51-3.38 278.59-3.1 281.02-3.1L281.02-3.1 282.17-3.1 281.82 0.5ZM293.53 0L289.03 0 289.03-24.5 293.53-24.5 293.53 0ZM293.53-30L289.03-30 289.03-35 293.53-35 293.53-30ZM307 0L302.5 0 302.5-24.5 306-24.5 306.9-19.8 305.2-20.6Q307.5-23.08 309.67-24.04 311.85-25 314.25-25L314.25-25Q316.05-25 317.71-24.41 319.37-23.83 320.71-22.36 322.05-20.9 322.85-18.3L322.85-18.3 321.6-18.85Q322.7-21.7 324.97-23.35 327.25-25 331.1-25L331.1-25Q334.17-25 336.27-23.86 338.37-22.73 339.44-20.39 340.5-18.05 340.5-14.45L340.5-14.45 340.5 0 336 0 336-14.4Q336-17.85 334.65-19.43 333.3-21 330.25-21L330.25-21Q328.1-21 326.8-20.34 325.5-19.68 324.84-18.63 324.17-17.57 323.96-16.4 323.75-15.23 323.75-14.2L323.75-14.2 323.75 0 319.25 0 319.25-13.5Q319.25-16.5 318.52-18.13 317.8-19.75 316.5-20.38 315.2-21 313.5-21L313.5-21Q311.02-21 309.07-19.91 307.12-18.82 306.45-16.45L306.45-16.45 307-18.9 307 0ZM360.96 0.5L360.96 0.5Q356.64 0.5 353.69-1.28 350.74-3.05 349.23-5.99 347.71-8.93 347.71-12.45L347.71-12.45Q347.71-15.88 349.13-18.73 350.54-21.58 353.23-23.29 355.91-25 359.71-25L359.71-25Q362.76-25 365.15-23.79 367.54-22.58 368.9-20.26 370.26-17.95 370.26-14.65L370.26-14.65Q370.26-14.13 370.23-13.51 370.19-12.9 370.06-12.25L370.06-12.25 352.31-12.25Q352.64-8.85 353.94-6.95 355.24-5.05 357.21-4.28 359.19-3.5 361.51-3.5L361.51-3.5Q363.21-3.5 365.06-3.85 366.91-4.2 368.56-4.95L368.56-4.95 369.16-1.4Q367.74-0.78 365.69-0.14 363.64 0.5 360.96 0.5ZM352.71-15.35L352.71-15.35 365.61-15.35Q365.61-17.07 364.96-18.35 364.31-19.63 362.99-20.31 361.66-21 359.61-21L359.61-21Q356.61-21 355-19.51 353.39-18.03 352.71-15.35Z" opacity="1" transform="matrix(1,0,0,1,0,0)" fill="#000000" class="undefined-text-1" data-fill-palette-color="secondary" id="text-1"></path></svg></g></svg></g></svg></g></svg></g></svg></g></svg></g></svg></g><g><path d="M245.816 0c68.262 0 123.6 55.338 123.6 123.6 0 68.262-55.338 123.6-123.6 123.6-49.233 0-91.744-28.786-111.619-70.445h2.548c19.703 40.354 61.141 68.152 109.071 68.152 66.996 0 121.307-54.311 121.306-121.307 0-66.996-54.311-121.307-121.306-121.307-47.93 0-89.368 27.798-109.071 68.152l-2.548 0c19.875-41.659 62.385-70.445 111.619-70.445z" fill="#000000" stroke="transparent" data-fill-palette-color="tertiary"></path></g></svg></g><defs></defs></svg><rect width="395.52" height="247.2" fill="none" stroke="none" visibility="hidden"></rect></g></svg></g></svg>